<?xml version="1.0" encoding="utf-8"?>
<!-- Generator: Adobe Illustrator 22.0.1, SVG Export Plug-In . SVG Version: 6.00 Build 0)  -->
<svg version="1.1" id="Layer_1" xmlns="http://www.w3.org/2000/svg" xmlns:xlink="http://www.w3.org/1999/xlink" x="0px" y="0px"
	 viewBox="0 0 500 500" style="enable-background:new 0 0 500 500;" xml:space="preserve">
<style type="text/css">
	.st0{fill:#A84A85;}
</style>
<g>
	<path class="st0" d="M125.8,371.7c38.5,1.2,77-17.1,98.2-49.7c10.5-16.1,15.8-36,12.4-54.9c-3.3-18.9-17.5-41-48.5-46.6
		c20.8,6,37.6,24.9,41.7,39.9c3.7,13.3,2.2,27.6-2.1,40.7c-8.3,25.3-27.3,47-51.4,58.4c-25,11.9-54.1,12.8-81.5,8.9
		C104.7,371.3,115.3,371.5,125.8,371.7 M166.2,251.4c-11.6,8.6-28.5,8.3-40.8,0.7c-12.3-7.6-19.8-21.6-21.4-36
		c-1.6-14.3,2-31.3,8.8-44c17.4-32.4,55.3-48.4,92.1-49.6s71.9,13.5,98.3,39.1c-24.8-24-57.7-40.1-92.2-41.8
		c-39.6-2-87.8,17.8-104.3,56.3c-3.8,8.8-5.5,18.4-6.1,28c-0.7,12.1,0.4,25.8,8.9,36.5c10.4,13.2,19.6,18.1,32.5,18.9
		C156.3,260.5,160,256.5,166.2,251.4 M163.4,237.2c-5-5.3-10.1-9.8-13.3-16.5c-3.8-8.1-3.8-17.8,1.6-25.2c4.8-6.5,12.2-12,19.3-15.8
		c16.5-8.9,35.7-10.7,53.7-6c13.2,3.4,25.6,10.1,36,19c18.5,16,30.5,38.6,36.4,62.4c5.1,20.6,5.7,42,4.1,63
		c-0.2,3.1-0.4,6.3-0.9,9.5c0-3.4,1-7.2,1.4-10.6c0.4-3.8,0.8-7.6,1-11.4c0.9-13.6,0.7-27.1-1.3-40.6c-2.9-19.2-9.4-38-20.2-54.2
		c-1.3-1.9-2.6-3.8-4-5.7c-5-6.6-10.7-12.6-17.1-17.8c-14.4-11.6-32.5-18.9-51-19.6c-17.6-0.6-35.4,5-49.3,15.9
		c-8.1,6.3-15.3,15.2-14.4,26c0.4,5.4,2.6,10.5,5.6,14.9C154.3,229.6,158.8,233.4,163.4,237.2 M180.8,200.1
		c75.3,7.1,75.9,69.4,75.9,69.4c-0.3,19.5-4.3,39.2-13.8,56.4c-10.3,18.4-27,33.3-42.7,47c-2.9,2.5-5.8,4.9-8.7,7.4
		c17.5-12.3,34.1-26.2,47-43.2c3-3.9,5.8-8.1,8.4-12.4c9.1-15.3,15.1-32.6,15.3-50.5C262.3,274.1,265.5,206,180.8,200.1z
		 M35.3,227.9c0.7,17.1,3.4,27.6,7.3,36.7c9.1,21,23.7,37.6,43.8,49c21.9,12.4,39.7,18.1,60.5,14c20-3.9,33.8-13.8,45.3-31.6
		c4.8-7.5,9-22.5,11.5-31c-7.8,25.1-21.5,45.7-44,54.6c-22.2,8.8-47.4,3.6-67.7-7.7c-11.5-6.4-22-14.8-30.5-24.8
		C47.3,270.4,38.1,249.6,35.3,227.9z M147.7,284.7c-14.1,4.2-33.3-2.1-44.5-9.6c-11.1-7.5-18.2-18.4-23.8-31.7
		c-8.4-23-9.7-38.7-2.5-62.8c7.1-23.5,23.9-43.1,42.4-59.2c-16.9,11.8-30.9,27.8-39.8,46.5s-12.2,39.9-9,60.3
		c2.5,15.7,9.1,30.9,20.2,42.3c20.2,20.8,56.8,25.6,76.9,1.8C162.5,278.2,155.1,282.3,147.7,284.7 M132.6,220.3
		c-0.1-0.1-0.1-0.3-0.1-0.4c-4.2-12.1,0-25.8,7.9-35.9c13.4-16.9,35.4-26.7,56.3-29.8c21.4-3.3,43.5,0.1,63.7,7.9
		c-10-3.9-19.3-8.3-29.9-10.7c-29.2-6.5-65.9-1-87.7,21c-13.9,14.1-20.9,35.8-10.6,54c5.1,9,13.9,15.9,23.9,18.6
		C146.3,238.8,136.5,231.2,132.6,220.3z M152.2,306c-2.3,0.8-4.7,1.4-7.1,1.9c-22.7,4.5-46.4-5.8-63.2-21.7
		c-25-23.8-36.5-58.9-30.6-92.8c2.1-11.8,6.3-22.9,11.5-33.7c-2.9,2.1-5.3,7-7.1,10.2c-2.2,3.8-4.1,7.7-5.7,11.8
		c-3.1,8-4.9,16.5-5.4,25.1c-1.1,17.6,2,34.3,9.2,50.2c12.6,27.7,39.6,48.8,69.6,53.7c19.9,3.3,41-3.2,55.3-17.5
		c5.2-5.2,9.6-11.6,11-18.8c1.9-9.6,0.6-17.6-4.9-26.8c5.3,9.6,6.2,19.1,2.4,29.4C181.9,291.7,166.3,301.3,152.2,306z M212.2,260.5
		c3.4,33.4-16.5,66.7-47,80.2c-9.9,4.4-20.7,6.8-31.6,6.8c-21.2,0.1-41.8-8.1-59.3-19.9c-16.9-11.4-33.7-26.2-46.6-42
		c24.6,21.3,49.7,43.9,82.1,51.9c23,5.7,48.3,2.9,68.4-9.6c11-6.9,20.1-16.7,26.2-28.2c6.7-12.7,7.7-25.2,7.7-39.2"/>
</g>
<g>
	<polygon points="130.9,215 111.4,215 111.4,222.9 117.5,222.9 117.5,262.4 124.8,262.4 124.8,222.9 130.9,222.9 	"/>
	<path d="M147.7,234.4h-6.8v19.9c0,0.5-0.2,0.9-0.6,1.1c-0.4,0.2-0.8,0.4-1.4,0.4c-0.5,0-0.9-0.1-1.3-0.4c-0.4-0.3-0.5-0.6-0.5-1.1
		v-19.9h-7v19.8c0,2.4,0.9,4.3,2.8,6c1.9,1.6,3.9,2.5,6.2,2.5s4.4-0.8,6-2.3s2.5-3.5,2.5-5.8v-20.2H147.7z M162.2,234.5
		c-0.5-0.1-1-0.2-1.5-0.2c-1.5,0-2.7,0.5-3.6,1.5v-1.4h-6.8v28h6.8v-18.1c1.2-1.9,2.9-2.9,5.1-3.1V234.5L162.2,234.5z M183.3,257
		c-0.1-1.6-0.2-3.3-0.2-5.1c0-0.7,0-1.4,0-2.3c0-0.8,0-1.8,0-2.8c0-1.4-0.1-2.7-0.3-4.1c-0.2-1.3-0.5-2.5-0.9-3.6
		c-0.7-1.5-1.8-2.7-3.2-3.5s-2.9-1.2-4.6-1.2c-0.2,0-0.4,0-0.7,0c-2.3,0-4.3,0.8-6.1,2.3c-1.7,1.5-2.6,3.4-2.6,5.7v20.1h7.6v-19.7
		c0-1.2,0.4-1.9,1.3-1.9c0.9,0,1.5,0.5,1.8,1.5c0,4.3,0.1,8,0.3,11.1c0.2,3.1,0.6,6.1,1.2,9h7.3C183.7,260.4,183.4,258.6,183.3,257
		L183.3,257z M208.3,218.1c-2.7-1.7-5.8-2.6-9.1-2.6c-3.2,0-6.1,1.5-8.7,4.4c-2.6,2.9-3.9,6.3-3.9,10.1c0,1.6,0.3,3.2,0.9,4.8
		c0.6,1.7,1.5,3.2,2.7,4.5l5.7-4.1c-1.3-1.8-2-3.6-2-5.3c0-1.9,0.6-3.4,1.8-4.7s2.7-1.9,4.3-1.9c1.7-0.2,3.2,0.4,4.5,1.9
		c1.3,1.4,2,3.2,2,5.2c0,4.1-2.4,9-7.1,14.8c-4,4.9-7.8,8.4-11.3,10.4v6.8h24.6v-7.2h-12.2c2.8-3.3,5-6,6.4-8c2.1-3.1,3.7-6,4.9-8.9
		c1.3-3.4,1.9-6.8,1.9-10.2C213.9,223.7,212,220.5,208.3,218.1L208.3,218.1L208.3,218.1z"/>
	<path d="M224.1,266.9h2.8c9.7,0,17.6-3.2,23.5-9.5c5.9-6.3,8.9-14,8.9-22.9s-3-16.5-8.9-22.9S236.7,202,227,202h-2.8v64.9H224.1z
		 M248.3,213.5c5.4,5.9,8.1,12.9,8.1,21c0,8.2-2.7,15.1-8.1,21c-5.4,5.8-12.3,8.7-20.7,8.7h-0.7v-59.6h0.7
		C236,204.7,242.9,207.6,248.3,213.5L248.3,213.5z M304.4,228v9.8c-1.3-3.2-3.7-5.8-7-7.8c-3.4-2-6.9-2.9-10.6-2.9
		c-5.6,0-10.5,2-14.5,6s-6.1,8.8-6.1,14.4s2,10.4,6.1,14.4c4,4,8.9,6,14.5,6c3.7,0,7.1-1,10.4-2.9c3.2-1.9,5.6-4.5,7.3-7.8v9.7h2.8
		V228L304.4,228L304.4,228z M274.2,234.9c3.5-3.6,7.7-5.4,12.6-5.4c4.8,0,9,1.8,12.5,5.4c3.5,3.6,5.2,7.8,5.2,12.7
		c0,4.9-1.7,9.1-5.2,12.6s-7.6,5.3-12.5,5.3s-9.1-1.8-12.6-5.3s-5.3-7.7-5.3-12.6S270.7,238.5,274.2,234.9L274.2,234.9z
		 M320.3,244.2c0-4,1.5-7.4,4.5-10.4c3-2.9,6.5-4.4,10.5-4.4s7.4,1.5,10.2,4.4c2.8,2.9,4.2,6.4,4.2,10.4v22.6h2.8v-22.6
		c0-4.8-1.6-8.8-4.9-12.2c-3.3-3.3-7.3-5-12.2-5c-7.1,0-12.1,2.9-15,8.8v-7.9h-2.8v38.9h2.8v-22.6H320.3z M396.6,261.4v-4.5
		c-1.8,2.7-4,4.8-6.8,6.4c-2.7,1.6-5.6,2.3-8.6,2.3c-4.8,0-8.9-1.8-12.5-5.3c-3.5-3.5-5.3-7.8-5.3-12.7c0-4.9,1.8-9.1,5.3-12.7
		c3.5-3.5,7.7-5.3,12.5-5.3c3,0,5.9,0.8,8.6,2.3c2.7,1.6,5,3.7,6.8,6.3v-4.4c-4.1-4.4-9.2-6.7-15-6.7c-5.9,0-10.8,2-14.9,6
		c-4,4-6.1,8.8-6.1,14.3s2,10.3,6,14.4s8.7,6.1,14.3,6.1h0.8C387.6,268,392.5,265.8,396.6,261.4L396.6,261.4L396.6,261.4z"/>
	<path d="M438.2,261.2v-4.4c-1.8,2.7-4,4.8-6.8,6.4c-2.7,1.6-5.8,2.4-9.3,2.4s-7.1-1.5-10.8-4.5l27.1-26.8
		c-4.3-4.7-9.4-7.1-15.3-7.1s-10.9,2-15,6c-4,4-6.1,8.7-6.1,14.2s2,10.3,6.1,14.4s8.8,6.2,14.3,6.2h0.8
		C429.2,267.9,434.2,265.7,438.2,261.2L438.2,261.2L438.2,261.2z M434.7,234.2l-25.2,25c-3.1-3.5-4.6-7.5-4.6-12.1s1.8-8.7,5.3-12.2
		s7.6-5.3,12.2-5.3C427.1,229.5,431.1,231.1,434.7,234.2L434.7,234.2L434.7,234.2z"/>
	<path d="M278.9,293.1c-0.3,0.4-0.8,0.6-1.4,0.6s-1-0.2-1.4-0.6c-0.3-0.4-0.5-0.9-0.5-1.7c0-0.7,0.2-1.3,0.5-1.7
		c0.3-0.4,0.8-0.6,1.4-0.6s1,0.2,1.4,0.6c0.3,0.4,0.5,0.9,0.5,1.6C279.4,292.1,279.3,292.7,278.9,293.1L278.9,293.1z M279.4,289.1
		c-0.2-0.4-0.5-0.8-0.9-1s-0.9-0.3-1.4-0.3c-0.9,0-1.6,0.3-2.2,1s-0.8,1.5-0.8,2.6s0.3,2,0.8,2.7s1.3,1,2.3,1c0.5,0,0.9-0.1,1.3-0.3
		c0.4-0.2,0.7-0.5,1-0.9v0.9h1.5v-11.1h-1.6V289.1L279.4,289.1z M289.5,288H288v1.1c-0.2-0.4-0.5-0.8-0.9-1s-0.9-0.3-1.4-0.3
		c-0.9,0-1.6,0.3-2.2,1s-0.8,1.5-0.8,2.6s0.3,2,0.8,2.7s1.3,1,2.3,1c0.5,0,0.9-0.1,1.3-0.3c0.4-0.2,0.7-0.5,1-0.9v0.9h1.5L289.5,288
		L289.5,288z M287.4,293.1c-0.4,0.4-0.8,0.6-1.4,0.6s-1-0.2-1.4-0.6c-0.3-0.4-0.5-0.9-0.5-1.7c0-0.7,0.2-1.3,0.5-1.7
		c0.3-0.4,0.8-0.6,1.4-0.6s1,0.2,1.4,0.6c0.3,0.4,0.5,0.9,0.5,1.6C288,292.1,287.8,292.7,287.4,293.1L287.4,293.1z M293.2,294.8
		v-3.1c0-0.6,0-1,0.1-1.2c0-0.3,0.1-0.5,0.2-0.6c0.2-0.2,0.4-0.4,0.7-0.6c0.3-0.1,0.6-0.2,1-0.2c0.6,0,0.9,0.1,1.2,0.4
		c0.2,0.3,0.3,0.9,0.3,1.8v3.5h1.6v-4.1c0-0.6,0-1.1-0.1-1.3c-0.1-0.2-0.1-0.5-0.3-0.6c-0.2-0.3-0.5-0.6-0.8-0.7
		c-0.4-0.2-0.8-0.2-1.3-0.2c-0.6,0-1.1,0.1-1.5,0.3c-0.4,0.2-0.8,0.6-1.1,1v-1.1h-1.5v6.8L293.2,294.8L293.2,294.8z M300.5,294.7
		c0.4,0.2,1,0.4,1.6,0.4c0.9,0,1.5-0.2,2-0.6s0.7-0.9,0.7-1.6c0-0.5-0.1-0.9-0.4-1.2c-0.3-0.3-0.7-0.6-1.3-0.8
		c-0.1-0.1-0.3-0.1-0.6-0.2c-0.8-0.3-1.2-0.6-1.2-1c0-0.2,0.1-0.4,0.3-0.6c0.2-0.1,0.4-0.2,0.7-0.2c0.3,0,0.5,0.1,0.7,0.2
		s0.3,0.3,0.4,0.5l1.1-0.8c-0.2-0.4-0.4-0.6-0.8-0.8c-0.4-0.2-0.8-0.3-1.3-0.3c-0.8,0-1.4,0.2-1.9,0.6s-0.7,0.9-0.7,1.5
		c0,0.4,0.1,0.8,0.4,1.1c0.3,0.3,0.8,0.6,1.5,0.9c0.1,0.1,0.3,0.1,0.5,0.2c0.7,0.3,1.1,0.6,1.1,0.9s-0.1,0.5-0.3,0.7
		c-0.2,0.2-0.5,0.2-0.8,0.2c-0.4,0-0.7-0.1-1-0.3c-0.3-0.2-0.4-0.4-0.5-0.8l-1.3,0.7C299.7,294.1,300,294.5,300.5,294.7L300.5,294.7
		z M313,291.4c0-1.1-0.3-2-0.9-2.6s-1.5-0.9-2.5-0.9s-1.9,0.3-2.6,1s-1,1.6-1,2.6c0,1.1,0.3,2,1,2.6c0.6,0.7,1.5,1,2.6,1
		c0.8,0,1.4-0.2,2-0.5s1-0.8,1.4-1.5l-1.3-0.7c-0.2,0.5-0.5,0.8-0.9,1c-0.3,0.2-0.7,0.3-1.2,0.3c-0.6,0-1-0.2-1.3-0.5
		c-0.3-0.4-0.5-0.8-0.6-1.5h5.4v-0.3H313z M307.6,290.6c0.1-0.5,0.3-0.9,0.6-1.1c0.3-0.2,0.7-0.4,1.2-0.4s1,0.1,1.3,0.4
		s0.5,0.6,0.6,1.1H307.6L307.6,290.6z M318.9,293.1c-0.3,0.4-0.8,0.6-1.4,0.6s-1-0.2-1.4-0.6c-0.3-0.4-0.5-0.9-0.5-1.7
		c0-0.7,0.2-1.3,0.5-1.7c0.3-0.4,0.8-0.6,1.4-0.6s1,0.2,1.4,0.6c0.3,0.4,0.5,0.9,0.5,1.6C319.4,292.1,319.3,292.7,318.9,293.1
		L318.9,293.1z M319.4,289.1c-0.2-0.4-0.5-0.8-0.9-1s-0.9-0.3-1.4-0.3c-0.9,0-1.6,0.3-2.2,1s-0.8,1.5-0.8,2.6s0.3,2,0.8,2.7
		s1.3,1,2.3,1c0.5,0,0.9-0.1,1.3-0.3c0.4-0.2,0.7-0.5,1-0.9v0.9h1.5v-11.1h-1.6V289.1L319.4,289.1z M323,288v3.3
		c0,1.3,0.3,2.2,0.8,2.8c0.5,0.6,1.4,0.9,2.5,0.9s2-0.3,2.5-0.9s0.8-1.5,0.8-2.8V288h-1.5v3.8c0,0.7-0.1,1.1-0.4,1.4
		s-0.7,0.4-1.3,0.4c-0.6,0-1-0.1-1.3-0.4s-0.4-0.8-0.4-1.4V288H323L323,288z M336.7,288.2c-0.3-0.1-0.5-0.2-0.8-0.3
		c-0.3-0.1-0.6-0.1-1-0.1c-1.1,0-2,0.3-2.7,1s-1,1.5-1,2.6s0.3,2,1,2.6c0.7,0.7,1.5,1,2.6,1c0.4,0,0.7,0,1-0.1s0.6-0.2,0.9-0.4v-1.8
		c-0.2,0.3-0.5,0.5-0.8,0.6s-0.6,0.2-1,0.2c-0.7,0-1.2-0.2-1.6-0.6s-0.6-1-0.6-1.7s0.2-1.2,0.6-1.6s0.9-0.6,1.5-0.6
		c0.4,0,0.7,0.1,1,0.2s0.6,0.3,0.8,0.6v-1.6H336.7z M344.7,288h-1.5v1.1c-0.2-0.4-0.5-0.8-0.9-1s-0.9-0.3-1.4-0.3
		c-0.9,0-1.6,0.3-2.2,1s-0.8,1.5-0.8,2.6s0.3,2,0.8,2.7s1.3,1,2.3,1c0.5,0,0.9-0.1,1.3-0.3c0.4-0.2,0.7-0.5,1-0.9v0.9h1.5L344.7,288
		L344.7,288z M342.7,293.1c-0.3,0.4-0.8,0.6-1.4,0.6s-1-0.2-1.4-0.6c-0.3-0.4-0.5-0.9-0.5-1.7c0-0.7,0.2-1.3,0.5-1.7
		c0.3-0.4,0.8-0.6,1.4-0.6s1,0.2,1.4,0.6c0.3,0.4,0.5,0.9,0.5,1.6C343.2,292.1,343,292.7,342.7,293.1L342.7,293.1z M348.8,294.8
		v-5.4h1.2V288h-1.2v-2.5h-1.5v2.6h-1.2v1.4h1.2v5.4h1.5V294.8z M351.4,285.8c0.2,0.2,0.4,0.3,0.7,0.3c0.3,0,0.5-0.1,0.7-0.3
		c0.2-0.2,0.3-0.4,0.3-0.7c0-0.3-0.1-0.5-0.3-0.7c-0.2-0.2-0.4-0.3-0.7-0.3c-0.3,0-0.5,0.1-0.7,0.3c-0.2,0.2-0.3,0.4-0.3,0.7
		S351.2,285.6,351.4,285.8L351.4,285.8z M352.9,294.8V288h-1.5v6.8H352.9L352.9,294.8z M361.6,291.4c0-1.1-0.3-2-0.9-2.6
		s-1.5-0.9-2.5-0.9s-1.9,0.3-2.6,1s-1,1.6-1,2.6c0,1.1,0.3,2,1,2.6c0.6,0.7,1.5,1,2.6,1c0.8,0,1.4-0.2,2-0.5s1-0.8,1.4-1.5l-1.3-0.7
		c-0.2,0.5-0.5,0.8-0.9,1c-0.3,0.2-0.7,0.3-1.2,0.3c-0.6,0-1-0.2-1.3-0.5c-0.3-0.4-0.5-0.8-0.6-1.5h5.4v-0.3H361.6z M356.3,290.6
		c0.1-0.5,0.3-0.9,0.6-1.1c0.3-0.2,0.7-0.4,1.2-0.4s1,0.1,1.3,0.4s0.5,0.6,0.6,1.1H356.3L356.3,290.6z M374.2,291.4
		c0-1.1-0.3-2-0.9-2.6s-1.5-0.9-2.5-0.9s-1.9,0.3-2.6,1s-1,1.6-1,2.6c0,1.1,0.3,2,1,2.6c0.6,0.7,1.5,1,2.6,1c0.8,0,1.4-0.2,2-0.5
		s1-0.8,1.4-1.5l-1.3-0.7c-0.2,0.5-0.5,0.8-0.9,1c-0.3,0.2-0.8,0.3-1.2,0.3c-0.6,0-1-0.2-1.3-0.5c-0.3-0.4-0.5-0.8-0.6-1.5h5.4v-0.3
		H374.2z M368.9,290.6c0.1-0.5,0.3-0.9,0.6-1.1c0.3-0.2,0.7-0.4,1.2-0.4s1,0.1,1.3,0.4s0.5,0.6,0.6,1.1H368.9L368.9,290.6z
		 M377.3,294.8v-3.1c0-0.6,0-1,0.1-1.2c0-0.3,0.1-0.5,0.2-0.6c0.2-0.2,0.4-0.4,0.7-0.6c0.3-0.1,0.6-0.2,1-0.2c0.6,0,0.9,0.1,1.2,0.4
		c0.2,0.3,0.3,0.9,0.3,1.8v3.5h1.6v-4.1c0-0.6,0-1.1-0.1-1.3c-0.1-0.2-0.1-0.5-0.3-0.6c-0.2-0.3-0.5-0.6-0.8-0.7
		c-0.4-0.2-0.8-0.2-1.3-0.2c-0.6,0-1.1,0.1-1.5,0.3c-0.4,0.2-0.8,0.6-1.1,1v-1.1h-1.5v6.8L377.3,294.8L377.3,294.8z M393.9,288.2
		c-0.3-0.1-0.5-0.2-0.8-0.3c-0.3-0.1-0.6-0.1-1-0.1c-1.1,0-2,0.3-2.7,1s-1,1.5-1,2.6s0.3,2,1,2.6c0.7,0.7,1.5,1,2.6,1
		c0.4,0,0.7,0,1-0.1s0.6-0.2,0.9-0.4v-1.8c-0.2,0.3-0.5,0.5-0.8,0.6s-0.6,0.2-1,0.2c-0.7,0-1.2-0.2-1.6-0.6s-0.6-1-0.6-1.7
		s0.2-1.2,0.6-1.6s0.9-0.6,1.5-0.6c0.4,0,0.7,0.1,1,0.2s0.6,0.3,0.8,0.6v-1.6H393.9z M397,294.8v-3.1c0-0.6,0-1,0.1-1.2
		c0-0.3,0.1-0.5,0.2-0.6c0.2-0.2,0.4-0.4,0.7-0.6c0.3-0.1,0.6-0.2,1-0.2c0.6,0,0.9,0.1,1.2,0.4c0.2,0.3,0.3,0.9,0.3,1.8v3.5h1.6
		v-4.1c0-0.6,0-1.1-0.1-1.3c-0.1-0.2-0.1-0.5-0.3-0.6c-0.2-0.3-0.5-0.6-0.8-0.7c-0.4-0.2-0.8-0.2-1.3-0.2c-0.6,0-1.1,0.1-1.5,0.3
		c-0.4,0.2-0.8,0.6-1.1,1v-5.4h-1.5v11.1L397,294.8L397,294.8z M408.8,293c-0.4,0.4-0.9,0.7-1.5,0.7s-1.1-0.2-1.5-0.7
		c-0.4-0.4-0.6-1-0.6-1.6s0.2-1.2,0.6-1.6s0.9-0.7,1.5-0.7s1.1,0.2,1.5,0.7c0.4,0.4,0.6,1,0.6,1.6
		C409.4,292.1,409.2,292.6,408.8,293L408.8,293z M403.8,292.8c0.2,0.4,0.5,0.8,0.8,1.2c0.4,0.3,0.8,0.6,1.2,0.8
		c0.5,0.2,0.9,0.3,1.4,0.3s1-0.1,1.4-0.3c0.5-0.2,0.9-0.5,1.2-0.8c0.4-0.3,0.6-0.7,0.8-1.2c0.2-0.4,0.3-0.9,0.3-1.4
		s-0.1-0.9-0.3-1.4c-0.2-0.4-0.5-0.8-0.8-1.2c-0.4-0.4-0.8-0.6-1.2-0.8c-0.5-0.2-0.9-0.3-1.4-0.3s-1,0.1-1.4,0.3
		c-0.5,0.2-0.9,0.4-1.2,0.8c-0.4,0.3-0.6,0.7-0.8,1.2c-0.2,0.4-0.3,0.9-0.3,1.4C403.6,291.9,403.6,292.4,403.8,292.8L403.8,292.8z
		 M414.2,288h-1.5v6.8h1.5v-3c0-1,0.1-1.7,0.3-2.1c0.2-0.4,0.6-0.6,1.1-0.6c0.2,0,0.4,0,0.5,0.1c0.2,0,0.3,0.1,0.4,0.2l0.6-1.3
		c-0.2-0.1-0.4-0.2-0.6-0.2c-0.2-0.1-0.4-0.1-0.6-0.1c-0.4,0-0.7,0.1-1,0.3c-0.3,0.2-0.5,0.5-0.7,1L414.2,288L414.2,288z
		 M424.6,291.4c0-1.1-0.3-2-0.9-2.6s-1.5-0.9-2.5-0.9s-1.9,0.3-2.6,1s-1,1.6-1,2.6c0,1.1,0.3,2,1,2.6c0.6,0.7,1.5,1,2.6,1
		c0.8,0,1.4-0.2,2-0.5s1-0.8,1.4-1.5l-1.3-0.7c-0.2,0.5-0.5,0.8-0.9,1c-0.3,0.2-0.8,0.3-1.2,0.3c-0.6,0-1-0.2-1.3-0.5
		c-0.3-0.4-0.5-0.8-0.6-1.5h5.4v-0.3H424.6z M419.2,290.6c0.1-0.5,0.3-0.9,0.6-1.1c0.3-0.2,0.7-0.4,1.2-0.4s1,0.1,1.3,0.4
		s0.5,0.6,0.6,1.1H419.2L419.2,290.6z M430.9,293c-0.4,0.4-0.9,0.7-1.5,0.7s-1.1-0.2-1.5-0.7s-0.6-1-0.6-1.6s0.2-1.2,0.6-1.6
		s0.9-0.7,1.5-0.7s1.1,0.2,1.5,0.7c0.4,0.4,0.6,1,0.6,1.6C431.5,292.1,431.3,292.6,430.9,293L430.9,293z M426,292.8
		c0.2,0.4,0.5,0.8,0.8,1.2c0.4,0.3,0.8,0.6,1.2,0.8c0.5,0.2,0.9,0.3,1.4,0.3s1-0.1,1.4-0.3c0.5-0.2,0.9-0.5,1.2-0.8
		c0.4-0.3,0.6-0.7,0.8-1.2c0.2-0.4,0.3-0.9,0.3-1.4s-0.1-0.9-0.3-1.4c-0.2-0.4-0.5-0.8-0.8-1.2c-0.4-0.4-0.8-0.6-1.2-0.8
		c-0.4-0.2-0.9-0.3-1.4-0.3s-1,0.1-1.4,0.3c-0.5,0.2-0.9,0.4-1.2,0.8c-0.4,0.3-0.6,0.7-0.8,1.2c-0.2,0.4-0.3,0.9-0.3,1.4
		C425.7,291.9,425.8,292.4,426,292.8L426,292.8z M439.1,293.1c-0.3,0.4-0.8,0.6-1.4,0.6s-1-0.2-1.4-0.6c-0.3-0.4-0.5-0.9-0.5-1.7
		c0-0.7,0.2-1.3,0.5-1.7c0.3-0.4,0.8-0.6,1.4-0.6s1,0.2,1.4,0.6c0.3,0.4,0.5,0.9,0.5,1.6C439.6,292.1,439.5,292.7,439.1,293.1
		L439.1,293.1z M441.1,288h-1.5v1.1c-0.2-0.4-0.5-0.8-0.9-1s-0.9-0.3-1.4-0.3c-0.9,0-1.6,0.3-2.2,1s-0.8,1.5-0.8,2.6s0.3,2,0.8,2.7
		s1.3,1,2.3,1c0.5,0,0.9-0.1,1.3-0.3c0.4-0.2,0.7-0.5,1-0.9v0.9c0,0.7-0.2,1.2-0.4,1.5c-0.3,0.3-0.8,0.4-1.4,0.4
		c-0.4,0-0.8-0.1-1-0.2c-0.2-0.2-0.4-0.4-0.4-0.7h-1.7c0,0.7,0.3,1.2,0.9,1.6s1.3,0.6,2.2,0.6c1.3,0,2.1-0.3,2.7-0.8
		c0.5-0.5,0.8-1.5,0.8-2.8V288H441.1z M444.8,288h-1.5v6.8h1.5v-3c0-1,0.1-1.7,0.3-2.1c0.2-0.4,0.6-0.6,1.1-0.6c0.2,0,0.4,0,0.5,0.1
		c0.2,0,0.3,0.1,0.4,0.2l0.6-1.3c-0.2-0.1-0.4-0.2-0.6-0.2c-0.2-0.1-0.4-0.1-0.6-0.1c-0.4,0-0.7,0.1-1,0.3c-0.3,0.2-0.5,0.5-0.7,1
		L444.8,288L444.8,288z M455,288h-1.5v1.1c-0.2-0.4-0.5-0.8-0.9-1s-0.9-0.3-1.4-0.3c-0.9,0-1.6,0.3-2.2,1s-0.8,1.5-0.8,2.6
		s0.3,2,0.8,2.7s1.3,1,2.3,1c0.5,0,0.9-0.1,1.3-0.3c0.4-0.2,0.7-0.5,1-0.9v0.9h1.5L455,288L455,288z M453,293.1
		c-0.4,0.4-0.8,0.6-1.4,0.6s-1-0.2-1.4-0.6c-0.3-0.4-0.5-0.9-0.5-1.7c0-0.7,0.2-1.3,0.5-1.7c0.3-0.4,0.8-0.6,1.4-0.6s1,0.2,1.4,0.6
		c0.3,0.4,0.5,0.9,0.5,1.6C453.5,292.1,453.4,292.7,453,293.1L453,293.1z M459,294.8v-5.4h1.6V288H459v-1.6c0-0.5,0.1-0.9,0.2-1.2
		c0.2-0.2,0.4-0.3,0.8-0.3c0.1,0,0.3,0,0.4,0.1c0.1,0,0.3,0.1,0.4,0.2v-1.4c-0.2-0.1-0.4-0.1-0.5-0.1c-0.2,0-0.3,0-0.5,0
		c-0.8,0-1.4,0.2-1.7,0.6c-0.4,0.4-0.6,1.1-0.6,2v1.8h-1.2v1.4h1.2v5.4h1.5V294.8z M461.8,285.8c0.2,0.2,0.4,0.3,0.7,0.3
		c0.3,0,0.5-0.1,0.7-0.3c0.2-0.2,0.3-0.4,0.3-0.7c0-0.3-0.1-0.5-0.3-0.7c-0.2-0.2-0.4-0.3-0.7-0.3c-0.3,0-0.5,0.1-0.7,0.3
		c-0.2,0.2-0.3,0.4-0.3,0.7S461.6,285.6,461.8,285.8L461.8,285.8z M463.3,294.8V288h-1.5v6.8H463.3L463.3,294.8z"/>
	<path d="M472.2,291.4c0-1.1-0.3-2-0.9-2.6s-1.5-0.9-2.5-0.9s-1.9,0.3-2.6,1s-1,1.6-1,2.6c0,1.1,0.3,2,1,2.6c0.6,0.7,1.5,1,2.6,1
		c0.8,0,1.4-0.2,2-0.5s1-0.8,1.4-1.5l-1.3-0.7c-0.2,0.5-0.5,0.8-0.9,1c-0.3,0.2-0.8,0.3-1.3,0.3c-0.6,0-1-0.2-1.3-0.5
		c-0.3-0.4-0.5-0.8-0.6-1.5h5.4L472.2,291.4L472.2,291.4z M466.9,290.6c0.1-0.5,0.3-0.9,0.6-1.1c0.3-0.2,0.7-0.4,1.2-0.4
		s1,0.1,1.3,0.4s0.5,0.6,0.6,1.1H466.9L466.9,290.6z"/>
</g>
</svg>
